<svg id="visual" viewBox="0 0 900 600" width="900" height="600" xmlns="http://www.w3.org/2000/svg" xmlns:xlink="http://www.w3.org/1999/xlink" version="1.1"><path d="M0 333L16.7 309.2C33.3 285.3 66.7 237.7 100 241.8C133.3 246 166.7 302 200 326.3C233.3 350.7 266.7 343.3 300 324.8C333.3 306.3 366.7 276.7 400 255.2C433.3 233.7 466.7 220.3 500 225.8C533.3 231.3 566.7 255.7 600 283.3C633.3 311 666.7 342 700 356.2C733.3 370.3 766.7 367.7 800 354.5C833.3 341.3 866.7 317.7 883.3 305.8L900 294" fill="none" stroke-linecap="round" stroke-linejoin="miter" stroke="#a6b2e6" stroke-width="40"></path></svg>