<svg id="visual" viewBox="0 0 900 600" width="900" height="600" xmlns="http://www.w3.org/2000/svg" xmlns:xlink="http://www.w3.org/1999/xlink" version="1.1"><path d="M0 502L15 497.7C30 493.3 60 484.7 90 474.2C120 463.7 150 451.3 180 452.2C210 453 240 467 270 468.2C300 469.3 330 457.7 360 456.8C390 456 420 466 450 471.7C480 477.3 510 478.7 540 469C570 459.3 600 438.7 630 442C660 445.3 690 472.7 720 470C750 467.3 780 434.7 810 433C840 431.3 870 460.7 885 475.3L900 490L900 601L885 601C870 601 840 601 810 601C780 601 750 601 720 601C690 601 660 601 630 601C600 601 570 601 540 601C510 601 480 601 450 601C420 601 390 601 360 601C330 601 300 601 270 601C240 601 210 601 180 601C150 601 120 601 90 601C60 601 30 601 15 601L0 601Z" fill="#dae0fc"></path><path d="M0 477L15 481.3C30 485.7 60 494.3 90 491.3C120 488.3 150 473.7 180 478.5C210 483.3 240 507.7 270 519.5C300 531.3 330 530.7 360 518.5C390 506.3 420 482.7 450 475.5C480 468.3 510 477.7 540 490.5C570 503.3 600 519.7 630 524.8C660 530 690 524 720 523.8C750 523.7 780 529.3 810 523.5C840 517.7 870 500.3 885 491.7L900 483L900 601L885 601C870 601 840 601 810 601C780 601 750 601 720 601C690 601 660 601 630 601C600 601 570 601 540 601C510 601 480 601 450 601C420 601 390 601 360 601C330 601 300 601 270 601C240 601 210 601 180 601C150 601 120 601 90 601C60 601 30 601 15 601L0 601Z" fill="#c0c9f2"></path><path d="M0 518L15 521.8C30 525.7 60 533.3 90 539.8C120 546.3 150 551.7 180 546C210 540.3 240 523.7 270 515.5C300 507.3 330 507.7 360 509.7C390 511.7 420 515.3 450 525C480 534.7 510 550.3 540 555.5C570 560.7 600 555.3 630 548.3C660 541.3 690 532.7 720 526C750 519.3 780 514.7 810 514.7C840 514.7 870 519.3 885 521.7L900 524L900 601L885 601C870 601 840 601 810 601C780 601 750 601 720 601C690 601 660 601 630 601C600 601 570 601 540 601C510 601 480 601 450 601C420 601 390 601 360 601C330 601 300 601 270 601C240 601 210 601 180 601C150 601 120 601 90 601C60 601 30 601 15 601L0 601Z" fill="#a7b3e8"></path></svg>